<svg xmlns="http://www.w3.org/2000/svg" width="16" height="16" viewBox="0 0 16 16"><defs><style>.a{fill:#292f36;}</style></defs><path class="a" d="M75.333,65.333a3.343,3.343,0,0,1,3.333,3.333v6.667a3.343,3.343,0,0,1-3.333,3.333H68.667a3.343,3.343,0,0,1-3.333-3.333V68.667a3.343,3.343,0,0,1,3.333-3.333h6.667m0-1.333H68.667A4.68,4.68,0,0,0,64,68.667v6.667A4.68,4.68,0,0,0,68.667,80h6.667A4.68,4.68,0,0,0,80,75.333V68.667A4.68,4.68,0,0,0,75.333,64Z" transform="translate(-64 -64)"/><path class="a" d="M168.333,130a1,1,0,1,1,1-1A1,1,0,0,1,168.333,130Zm-4.333.667a2.667,2.667,0,1,1-2.667,2.667A2.669,2.669,0,0,1,164,130.667m0-1.333a4,4,0,1,0,4,4A4,4,0,0,0,164,129.333Z" transform="translate(-156 -125.333)"/></svg>