<svg xmlns="http://www.w3.org/2000/svg" width="13.583" height="16" viewBox="0 0 13.583 16"><defs><style>.a{fill:#292f36;}</style></defs><g transform="translate(-37.766)"><g transform="translate(40.206)"><path class="a" d="M118.359,8.7a4.352,4.352,0,1,1,4.352-4.352A4.357,4.357,0,0,1,118.359,8.7Zm0-7.249a2.9,2.9,0,1,0,2.9,2.9A2.9,2.9,0,0,0,118.359,1.455Z" transform="translate(-114.007)"/></g><g transform="translate(37.766 9.459)"><path class="a" d="M50.622,302.149H38.494a.727.727,0,0,1-.716-.852l.631-3.617a2.5,2.5,0,0,1,2.464-2.071h7.372a2.5,2.5,0,0,1,2.464,2.071l.631,3.617a.727.727,0,0,1-.716.852Zm-11.263-1.455h10.4l-.482-2.765a1.045,1.045,0,0,0-1.031-.867H40.872a1.045,1.045,0,0,0-1.031.867Z" transform="translate(-37.766 -295.608)"/></g></g></svg>