<svg xmlns="http://www.w3.org/2000/svg" width="12.749" height="16" viewBox="0 0 12.749 16"><defs><style>.a{fill:#292f36;}</style></defs><path class="a" d="M63.55,13.305l-.388-9.991a.727.727,0,0,0-.727-.7H60.484a3.347,3.347,0,0,0-6.531,0H51.917a.727.727,0,0,0-.727.7L50.8,13.305c0,.009,0,.019,0,.028A2.67,2.67,0,0,0,53.469,16h7.415a2.67,2.67,0,0,0,2.667-2.667C63.551,13.324,63.55,13.314,63.55,13.305ZM57.218,1.455a1.9,1.9,0,0,1,1.745,1.16h-3.49A1.9,1.9,0,0,1,57.218,1.455Zm3.666,13.091H53.469a1.213,1.213,0,0,1-1.212-1.2l.36-9.276h1.254V5.533a.727.727,0,1,0,1.455,0V4.07h3.786V5.533a.727.727,0,0,0,1.455,0V4.07h1.171l.36,9.276A1.213,1.213,0,0,1,60.884,14.545Z" transform="translate(-50.802)"/></svg>