<svg xmlns="http://www.w3.org/2000/svg" width="16" height="15.292" viewBox="0 0 16 15.292"><defs><style>.a{fill:#292f36;}</style></defs><g transform="translate(0 -9.708)"><g transform="translate(0 9.708)"><rect class="a" width="3.437" height="10.323" transform="translate(0.198 4.969)"/><path class="a" d="M160.983,140.513a3.7,3.7,0,0,0-2.865-1.182,4.129,4.129,0,0,0-1.193.162,2.707,2.707,0,0,0-.906.453,3.881,3.881,0,0,0-.995,1.093V139.57H151.6l.011.5q.011.5.011,3.083t-.021,6.74h3.427v-5.76a2.516,2.516,0,0,1,.115-.844,2.213,2.213,0,0,1,.662-.89,1.687,1.687,0,0,1,1.1-.36,1.482,1.482,0,0,1,1.318.62,3.014,3.014,0,0,1,.422,1.714v5.521h3.427v-5.916A4.96,4.96,0,0,0,160.983,140.513Z" transform="translate(-146.066 -134.602)"/><path class="a" d="M1.937,9.708a1.961,1.961,0,0,0-1.4.505A1.677,1.677,0,0,0,0,11.489,1.707,1.707,0,0,0,.521,12.76a1.88,1.88,0,0,0,1.375.51h.021a1.963,1.963,0,0,0,1.412-.51,1.649,1.649,0,0,0,.526-1.271,1.738,1.738,0,0,0-.531-1.276A1.9,1.9,0,0,0,1.937,9.708Z" transform="translate(0 -9.708)"/></g></g></svg>