<svg xmlns="http://www.w3.org/2000/svg" width="8.082" height="16" viewBox="0 0 8.082 16"><defs><style>.a{fill:#292f36;}</style></defs><g transform="translate(-76.703)"><path class="a" d="M76.961,8.522h1.754v7.22a.258.258,0,0,0,.258.258h2.974a.258.258,0,0,0,.258-.258V8.556h2.016a.258.258,0,0,0,.256-.229l.306-2.658a.258.258,0,0,0-.256-.288H82.2V3.715c0-.5.27-.757.8-.757h1.518a.258.258,0,0,0,.258-.258V.26A.258.258,0,0,0,84.527,0H82.435l-.1,0a4.01,4.01,0,0,0-2.622.988A2.75,2.75,0,0,0,78.8,3.433V5.381H76.961a.258.258,0,0,0-.258.258V8.263A.258.258,0,0,0,76.961,8.522Z"/></g></svg>