<svg xmlns="http://www.w3.org/2000/svg" width="60" height="59.996" viewBox="0 0 60 59.996"><defs><style>.a{fill:#6cc0bf;}</style></defs><g transform="translate(0 -0.002)"><path class="a" d="M30,0A30,30,0,1,0,60,30,30.033,30.033,0,0,0,30,0m0,57.107A27.108,27.108,0,1,1,57.106,30,27.138,27.138,0,0,1,30,57.109"/><path class="a" d="M32.049,30h0l5.009-5.008-2.049-2.048-4.475,4.473v0L27.953,30l-5.008,5.007,2.138,2.139L30,32.05,32.048,30Z"/><path class="a" d="M48.482,30l.112-.112a7.458,7.458,0,0,0,0-10.53A7.5,7.5,0,0,0,42.8,17.2c.013-.173.02-.346.02-.518a7.51,7.51,0,0,0-2.177-5.277,7.45,7.45,0,0,0-10.53,0L30,11.519l-.111-.111a7.45,7.45,0,0,0-10.531,0,7.5,7.5,0,0,0-2.175,5.276c0,.172.006.345.018.518a7.5,7.5,0,0,0-5.794,2.157,7.45,7.45,0,0,0,0,10.53l.11.112-.11.112a7.45,7.45,0,0,0,0,10.53A7.489,7.489,0,0,0,17.2,42.8c-.012.174-.018.346-.018.517A7.509,7.509,0,0,0,19.358,48.6a7.454,7.454,0,0,0,10.531,0L30,48.483l.112.112a7.453,7.453,0,0,0,10.53,0,7.515,7.515,0,0,0,2.177-5.279c0-.171-.007-.343-.02-.517a7.484,7.484,0,0,0,5.8-2.157,7.458,7.458,0,0,0,0-10.53ZM32.159,13.456a4.514,4.514,0,0,1,3.215-1.33h0a4.512,4.512,0,0,1,3.218,1.33,4.593,4.593,0,0,1,1.014,4.888l-1.39,1.391-.9-.9h0l-.094-.095-.205-.206-4.965-4.963Zm-18.7,7.951a4.6,4.6,0,0,1,3.238-1.325,4.476,4.476,0,0,1,1.649.311l1.393,1.392-3.266,3.266-2.9,2.9-.112-.11a4.557,4.557,0,0,1,0-6.435M27.841,46.545a4.554,4.554,0,0,1-6.433,0,4.6,4.6,0,0,1-1.016-4.887l1.392-1.392.905.9,5.265,5.264Zm10.752,0a4.5,4.5,0,0,1-3.506,1.321,4.77,4.77,0,0,1-3.037-1.433h0L30,44.385l-4.166-4.167-.213-.212-.523-.525-1.155-1.153-2.159-2.16-5.007-5.007L14.728,33.21l5.008,5.008L18.351,39.6a4.6,4.6,0,0,1-4.9-1.01,4.508,4.508,0,0,1-1.321-3.506,4.777,4.777,0,0,1,1.433-3.037L15.615,30l4.9-4.9,1.265-1.265,5.009,5.009,2.048-2.048-5.009-5.009,5.008-5.008-2.047-2.048-5.009,5.009L20.4,18.351a4.523,4.523,0,0,1-.317-1.671,4.588,4.588,0,0,1,1.327-3.223,4.554,4.554,0,0,1,6.433,0l.112.112L30,15.615l4.91,4.911h0l1.258,1.257,2.048,2.048,5.009,5.009,2.048-2.048-5.008-5.009L41.651,20.4a4.547,4.547,0,0,1,6.172,4.936,4.76,4.76,0,0,1-1.385,2.617l0,0L44.387,30l-6.169,6.168-5.009-5.008-2.047,2.047,5.008,5.009-5.008,5.007,2.048,2.049,5.008-5.009L39.6,41.65a4.522,4.522,0,0,1,.318,1.669,4.59,4.59,0,0,1-1.328,3.226m7.952-7.952a4.6,4.6,0,0,1-4.888,1.016l-1.392-1.393L41.377,37.1l5.057-5.054.111.11a4.556,4.556,0,0,1,0,6.434"/></g></svg>