<svg xmlns="http://www.w3.org/2000/svg" width="244.93" height="50" viewBox="0 0 244.93 50"><defs><style>.a{fill:#6cc0bf;}</style></defs><g transform="translate(-0.035)"><path class="a" d="M229.3,12.867a15.669,15.669,0,1,0,15.669,15.67A15.687,15.687,0,0,0,229.3,12.867m0,29.829a14.159,14.159,0,1,1,14.159-14.159A14.175,14.175,0,0,1,229.3,42.7"/><path class="a" d="M230.366,28.536h0l2.617-2.616-1.071-1.069-2.337,2.336h0l-1.349,1.348-2.615,2.616,1.116,1.117,2.569-2.663Z"/><path class="a" d="M238.95,28.537l.058-.058a3.894,3.894,0,0,0,0-5.5,3.921,3.921,0,0,0-3.027-1.128q.009-.135.009-.27a3.925,3.925,0,0,0-1.136-2.756,3.892,3.892,0,0,0-5.5,0l-.058.058-.057-.058a3.892,3.892,0,0,0-5.5,0A3.923,3.923,0,0,0,222.6,21.58c0,.09,0,.18.01.27a3.924,3.924,0,0,0-3.027,1.128,3.892,3.892,0,0,0,0,5.5l.058.058-.058.058a3.892,3.892,0,0,0,0,5.5,3.909,3.909,0,0,0,3.027,1.126c-.007.091-.01.181-.01.271a3.928,3.928,0,0,0,1.136,2.757,3.894,3.894,0,0,0,5.5,0l.057-.059.058.059a3.894,3.894,0,0,0,5.5,0,3.931,3.931,0,0,0,1.136-2.757c0-.09,0-.18-.009-.271a3.9,3.9,0,0,0,3.027-1.126,3.894,3.894,0,0,0,0-5.5ZM230.424,19.9a2.358,2.358,0,0,1,1.68-.695h0a2.361,2.361,0,0,1,1.681.695,2.4,2.4,0,0,1,.53,2.553l-.726.726-.472-.472-.05-.05-.108-.108-2.594-2.593Zm-9.77,4.153a2.4,2.4,0,0,1,1.692-.692,2.332,2.332,0,0,1,.861.162l.728.727-1.706,1.706-1.516,1.515-.059-.057a2.379,2.379,0,0,1,0-3.361m7.514,13.13a2.379,2.379,0,0,1-3.361,0,2.4,2.4,0,0,1-.531-2.553L225,33.9l.473.472h0l2.749,2.749Zm5.617,0a2.355,2.355,0,0,1-1.832.69,2.485,2.485,0,0,1-1.586-.749h0l-1.071-1.07-2.176-2.177-.111-.11-.274-.274-.6-.6L225,31.757l-2.614-2.616-1.071,1.07,2.615,2.616-.724.724a2.4,2.4,0,0,1-2.556-.528,2.353,2.353,0,0,1-.69-1.831,2.5,2.5,0,0,1,.749-1.586l1.07-1.071,2.561-2.561.661-.661,2.617,2.617,1.07-1.07-2.617-2.616,2.617-2.615-1.07-1.07L225,23.175l-.724-.724a2.376,2.376,0,0,1,3.888-2.556l.058.058,1.07,1.069,2.566,2.566h0l.657.657,1.07,1.07,2.616,2.616,1.07-1.07-2.616-2.616.724-.723a2.375,2.375,0,0,1,3.223,2.577,2.489,2.489,0,0,1-.723,1.367l0,0-1.07,1.07-3.223,3.222-2.615-2.617-1.07,1.07,2.615,2.617L229.9,35.446l1.07,1.07,2.616-2.616.723.724a2.355,2.355,0,0,1,.166.872,2.4,2.4,0,0,1-.693,1.682m4.154-4.154a2.4,2.4,0,0,1-2.553.532l-.727-.727.581-.581,2.641-2.64.058.057a2.379,2.379,0,0,1,0,3.359"/><path class="a" d="M170.262,40.46a11.924,11.924,0,1,1,11.924-11.924A11.937,11.937,0,0,1,170.262,40.46m0-21.246a9.323,9.323,0,1,0,9.323,9.323,9.334,9.334,0,0,0-9.323-9.323"/><path class="a" d="M140.532,50a1.3,1.3,0,0,1,0-2.6,9.334,9.334,0,0,0,9.323-9.322V17.913a1.3,1.3,0,0,1,2.6,0V38.076A11.939,11.939,0,0,1,140.532,50"/><path class="a" d="M104.468,40.461a1.3,1.3,0,0,1-1.3-1.3V28.536a11.938,11.938,0,0,1,11.925-11.925,1.3,1.3,0,0,1,0,2.6,9.333,9.333,0,0,0-9.324,9.323V39.16a1.3,1.3,0,0,1-1.3,1.3"/><path class="a" d="M57.123,16.613a11.925,11.925,0,1,0,9.323,19.346v3.2a1.3,1.3,0,1,0,2.6,0V28.537A11.937,11.937,0,0,0,57.123,16.613m0,21.246a9.323,9.323,0,1,1,9.323-9.323,9.334,9.334,0,0,1-9.323,9.323"/><path class="a" d="M96.395,0a1.3,1.3,0,0,0-1.3,1.3V21.114a11.916,11.916,0,1,0,2.6,7.423V1.3a1.3,1.3,0,0,0-1.3-1.3M85.772,37.859A9.323,9.323,0,1,1,95.1,28.536a9.334,9.334,0,0,1-9.323,9.323"/><path class="a" d="M131.138,16.612a11.924,11.924,0,1,0,8.433,20.356,1.3,1.3,0,1,0-1.84-1.839,9.315,9.315,0,0,1-15.814-5.29h19.845a1.3,1.3,0,0,0,1.3-1.3,11.938,11.938,0,0,0-11.924-11.925m0,2.6a9.329,9.329,0,0,1,9.221,8.022H121.917a9.329,9.329,0,0,1,9.221-8.022"/><path class="a" d="M207.432,16.75a1.3,1.3,0,0,0-1.745.581l-9.46,18.92-9.459-18.92A1.3,1.3,0,0,0,184.44,18.5L194.773,39.16l-1.14,2.283a8.816,8.816,0,0,1-9.4,5.012,1.3,1.3,0,0,0-.366,2.576,12.067,12.067,0,0,0,1.719.123,11.319,11.319,0,0,0,10.393-6.59l1.41-2.822h0l10.623-21.247a1.3,1.3,0,0,0-.583-1.744"/><path class="a" d="M29.387,16.612a11.116,11.116,0,0,0-9.148,4.853,11.053,11.053,0,0,0-20.2,6.2V39.158a1.3,1.3,0,1,0,2.6,0V27.669a8.457,8.457,0,0,1,16.3-3.157V39.159a1.3,1.3,0,1,0,2.6,0V24.527a8.454,8.454,0,0,1,16.3,3.142V39.158a1.3,1.3,0,1,0,2.6,0V27.669A11.068,11.068,0,0,0,29.387,16.612"/></g></svg>