<svg xmlns="http://www.w3.org/2000/svg" width="99" height="26.703" viewBox="0 0 99 26.703"><defs><style>.a{fill:#1b3e60;}.b{fill:#ec2a58;}</style></defs><g transform="translate(0 -0.148)"><path class="a" d="M40.867,10.7h-5.7a.234.234,0,0,0-.245.22v.958a.233.233,0,0,0,.245.22H37a.234.234,0,0,1,.245.22v3.755a.233.233,0,0,0,.245.22h1.064a.234.234,0,0,0,.245-.22V12.318a.233.233,0,0,1,.245-.22h1.827a.234.234,0,0,0,.245-.22V10.92A.237.237,0,0,0,40.867,10.7Z"/><path class="a" d="M55.33,14.9h-5.7a.234.234,0,0,0-.245.22v.958a.233.233,0,0,0,.245.22h5.7a.234.234,0,0,0,.245-.22v-.958A.234.234,0,0,0,55.33,14.9Z"/><path class="a" d="M55.33,12.8h-5.7a.234.234,0,0,0-.245.22v.958a.233.233,0,0,0,.245.22h5.7a.234.234,0,0,0,.245-.22v-.958A.233.233,0,0,0,55.33,12.8Z"/><path class="a" d="M55.33,10.7h-5.7a.234.234,0,0,0-.245.22v.958a.233.233,0,0,0,.245.22h5.7a.234.234,0,0,0,.245-.22V10.92A.234.234,0,0,0,55.33,10.7Z"/><path class="a" d="M69.764,14.9H67.042a.11.11,0,0,1-.1-.173l2.849-3.676a.22.22,0,0,0-.2-.346H64.1a.234.234,0,0,0-.245.22v.958a.233.233,0,0,0,.245.22h2.75a.11.11,0,0,1,.1.173L64.1,15.947a.22.22,0,0,0,.2.346h5.465a.234.234,0,0,0,.245-.22v-.958A.232.232,0,0,0,69.764,14.9Z"/><path class="a" d="M84.27,10.7H83.206a.234.234,0,0,0-.245.22v3.274a.547.547,0,0,1-.311.572,1.247,1.247,0,0,1-.457.113H80.614c-.431,0-.574-.141-.657-.279a.906.906,0,0,1-.116-.4V10.921a.233.233,0,0,0-.245-.22H78.532a.234.234,0,0,0-.245.22v3.258a2.115,2.115,0,0,0,.654,1.517,2.385,2.385,0,0,0,1.673.582H82.2a2.907,2.907,0,0,0,1.116-.247,1.924,1.924,0,0,0,1.2-1.836V10.921A.233.233,0,0,0,84.27,10.7Z"/><path class="a" d="M94.757,12.1h4A.233.233,0,0,0,99,11.878V10.92a.233.233,0,0,0-.245-.22H94.732a2.457,2.457,0,0,0-.927.212A1.668,1.668,0,0,0,93.854,14a2.582,2.582,0,0,0,.946.2h2.273l.022,0,.05-.007a.366.366,0,0,1,.2.046.372.372,0,0,1,.061.254c0,.125,0,.385-.427.4l-3.94.006a.233.233,0,0,0-.244.221l0,.958a.233.233,0,0,0,.245.22l3.947-.006a1.848,1.848,0,0,0,1.971-1.8,1.592,1.592,0,0,0-.575-1.294,2.044,2.044,0,0,0-1.334-.4H94.8a.982.982,0,0,1-.284-.064c-.1-.042-.169-.086-.169-.279C94.346,12.122,94.619,12.1,94.757,12.1Z"/><path class="b" d="M12.845,16.524h1.106A.243.243,0,0,0,14.2,16.3v-3.9a.243.243,0,0,1,.254-.229h1.9a.242.242,0,0,0,.254-.229v-1a.243.243,0,0,0-.254-.229H10.436a.243.243,0,0,0-.254.229v1a.243.243,0,0,0,.254.229h1.9a.243.243,0,0,1,.254.229v3.9A.245.245,0,0,0,12.845,16.524Z"/><path class="b" d="M5.429,3.561a.346.346,0,0,0,.213-.073A12.822,12.822,0,0,1,6.966,2.6l1.221,2.2A10.244,10.244,0,0,0,6.223,6.34h0A10.067,10.067,0,0,0,3.33,12.223a.35.35,0,0,0,.3.391.34.34,0,0,0,.045,0,.35.35,0,0,0,.346-.305,9.551,9.551,0,0,1,.237-1.187l2.32.681A7.073,7.073,0,0,0,6.362,13.5a6.976,6.976,0,0,0,1.093,3.775.339.339,0,0,0,.526.057L8,17.317a.343.343,0,0,0,.043-.427A6.282,6.282,0,0,1,7.06,13.5a6.349,6.349,0,0,1,.252-1.783c.009-.019.029-.029.035-.05a.29.29,0,0,0,.005-.058,6.292,6.292,0,0,1,.7-1.519.343.343,0,0,0-.042-.429L8,9.647a.341.341,0,0,0-.527.056,6.974,6.974,0,0,0-.686,1.435L4.46,10.456A9.382,9.382,0,0,1,6.717,6.834h0a9.373,9.373,0,0,1,5.16-2.647.346.346,0,0,0,.294-.341v-.01a.345.345,0,0,0-.4-.339A10.085,10.085,0,0,0,8.8,4.466L7.575,2.261A12.7,12.7,0,0,1,21.154,3.489a.349.349,0,0,0,.427-.553,13.4,13.4,0,0,0-16.366,0,.349.349,0,0,0,.214.625Z"/><path class="b" d="M2.414,19.816l2.207-1.189a10.208,10.208,0,0,0,1.6,2.081h0a10.052,10.052,0,0,0,5.545,2.843.346.346,0,0,0,.4-.339V23.2a.347.347,0,0,0-.294-.341c-.255-.041-.5-.12-.747-.181l.667-2.324a7.035,7.035,0,0,0,1.566.2h.071A6.975,6.975,0,0,0,17.2,19.433a.34.34,0,0,0,.055-.525l-.014-.014a.343.343,0,0,0-.43-.041,6.284,6.284,0,0,1-6.76.043.338.338,0,0,0-.422.043l-.019.019a.337.337,0,0,0,.057.522,6.914,6.914,0,0,0,1.458.683l-.675,2.352a9.374,9.374,0,0,1-3.734-2.3h0a9.374,9.374,0,0,1-2.694-5.478.351.351,0,0,0-.347-.3.34.34,0,0,0-.045,0,.35.35,0,0,0-.3.391,10.092,10.092,0,0,0,.957,3.189L2.077,19.2A12.55,12.55,0,0,1,3.436,5.667a.349.349,0,1,0-.547-.433,13.25,13.25,0,0,0-2.884,8.2A.169.169,0,0,0,0,13.455c0,.015,0,.03,0,.046s0,.029,0,.044a.189.189,0,0,0,0,.023,13.264,13.264,0,0,0,2.784,8.069.349.349,0,0,0,.277.136.35.35,0,0,0,.276-.563A12.636,12.636,0,0,1,2.414,19.816Z"/><path class="b" d="M26.793,13.5c0-.015,0-.03,0-.046a.189.189,0,0,0,0-.023,13.253,13.253,0,0,0-2.884-8.2.349.349,0,1,0-.547.433,12.918,12.918,0,0,1,1.024,1.516L22.143,8.39a10.2,10.2,0,0,0-1.585-2.05h0A10.052,10.052,0,0,0,15.013,3.5a.346.346,0,0,0-.4.339v.01a.347.347,0,0,0,.294.341c.259.042.505.121.757.184l-.633,2.281a7.048,7.048,0,0,0-1.594-.209h-.071A6.982,6.982,0,0,0,9.69,7.506a.336.336,0,0,0-.058.521l.021.021a.338.338,0,0,0,.419.044,6.284,6.284,0,0,1,6.719.043.34.34,0,0,0,.427-.042l.016-.016a.339.339,0,0,0-.055-.524A6.942,6.942,0,0,0,15.7,6.847l.642-2.312a9.389,9.389,0,0,1,3.725,2.3h0a9.374,9.374,0,0,1,2.694,5.478.35.35,0,0,0,.346.305.34.34,0,0,0,.045,0,.35.35,0,0,0,.3-.391A10.105,10.105,0,0,0,22.478,9L24.718,7.8A12.541,12.541,0,0,1,23.455,21.21a.349.349,0,1,0,.552.427,13.268,13.268,0,0,0,2.784-8.069.189.189,0,0,0,0-.023C26.8,13.53,26.793,13.516,26.793,13.5Z"/><path class="b" d="M21.276,23.416a12.865,12.865,0,0,1-1.438.977l-1.2-2.174a10.216,10.216,0,0,0,1.916-1.5l.009-.008.023-.024-.016.015a10.067,10.067,0,0,0,2.885-5.875.35.35,0,0,0-.3-.391.34.34,0,0,0-.045,0,.35.35,0,0,0-.346.305,9.708,9.708,0,0,1-.224,1.136l-2.311-.7a7.072,7.072,0,0,0,.211-1.669,6.976,6.976,0,0,0-1.06-3.722.337.337,0,0,0-.524-.059l-.019.019a.34.34,0,0,0-.044.421A6.36,6.36,0,0,1,18.8,16.82a.338.338,0,0,0,.045.419l.02.02a.336.336,0,0,0,.523-.06,6.939,6.939,0,0,0,.634-1.363l2.316.7a9.386,9.386,0,0,1-2.273,3.672h0a9.373,9.373,0,0,1-5.16,2.647.346.346,0,0,0-.294.341v.01a.345.345,0,0,0,.4.339,10.078,10.078,0,0,0,3.012-.989l1.2,2.172A12.689,12.689,0,0,1,5.519,23.415a.349.349,0,1,0-.433.547,13.4,13.4,0,0,0,16.622,0,.348.348,0,1,0-.432-.546Z"/><path class="b" d="M6.178,6.354l.036-.038-.025.024A.171.171,0,0,0,6.178,6.354Z"/><path class="b" d="M6.237,6.292l-.023.024.036-.035Z"/><path class="b" d="M20.617,20.647l-.036.037.025-.024Z"/></g></svg>